<svg width="392" height="392" viewBox="0 0 392 392" fill="none" xmlns="http://www.w3.org/2000/svg">
<g clip-path="url(#clip0_12_25)">
<path d="M122.5 306.25C122.496 312.987 120.641 319.593 117.137 325.346C113.633 331.1 108.615 335.78 102.631 338.874C96.6473 341.969 89.928 343.359 83.2075 342.893C76.487 342.427 70.0239 340.122 64.5245 336.231C59.0251 332.341 54.701 327.013 52.0246 320.831C49.3483 314.649 48.4228 307.85 49.3492 301.177C50.2755 294.504 53.0182 288.215 57.2775 282.996C61.5367 277.776 67.1486 273.828 73.5 271.583V61.25C73.5 58.0011 74.7906 54.8853 77.088 52.5879C79.3853 50.2906 82.5011 49 85.75 49C88.9989 49 92.1147 50.2906 94.4121 52.5879C96.7094 54.8853 98 58.0011 98 61.25V271.583C105.168 274.117 111.374 278.812 115.762 285.021C120.15 291.23 122.504 298.647 122.5 306.25Z" fill="#FF3D12"/>
<path d="M24.5 61.25C24.5 45.0055 30.9531 29.4263 42.4398 17.9397C53.9264 6.45311 69.5055 0 85.75 0C101.995 0 117.574 6.45311 129.06 17.9397C140.547 29.4263 147 45.0055 147 61.25V246.225C158.817 258.286 166.811 273.567 169.978 290.153C173.145 306.738 171.345 323.89 164.804 339.456C158.263 355.023 147.272 368.312 133.208 377.657C119.145 387.002 102.635 391.988 85.75 391.988C68.8648 391.988 52.3554 387.002 38.292 377.657C24.2285 368.312 13.237 355.023 6.69584 339.456C0.154628 323.89 -1.64517 306.738 1.52213 290.153C4.68943 273.567 12.6828 258.286 24.5 246.225V61.25ZM85.75 24.5C76.0033 24.5 66.6558 28.3719 59.7639 35.2638C52.8719 42.1558 49 51.5033 49 61.25V256.932L44.9085 260.607C35.6616 268.876 29.1435 279.758 26.2168 291.813C23.2901 303.868 24.0929 316.527 28.5188 328.116C32.9447 339.705 40.7851 349.676 51.0025 356.711C61.2199 363.746 73.3327 367.513 85.7378 367.513C98.1429 367.513 110.256 363.746 120.473 356.711C130.69 349.676 138.531 339.705 142.957 328.116C147.383 316.527 148.185 303.868 145.259 291.813C142.332 279.758 135.814 268.876 126.567 260.607L122.5 256.907V61.25C122.5 51.5033 118.628 42.1558 111.736 35.2638C104.844 28.3719 95.4968 24.5 85.75 24.5ZM208.25 49C211.499 49 214.615 50.2906 216.912 52.5879C219.209 54.8853 220.5 58.0011 220.5 61.25V85.75C220.5 88.9989 219.209 92.1147 216.912 94.4121C214.615 96.7094 211.499 98 208.25 98C205.001 98 201.885 96.7094 199.588 94.4121C197.291 92.1147 196 88.9989 196 85.75V61.25C196 58.0011 197.291 54.8853 199.588 52.5879C201.885 50.2906 205.001 49 208.25 49ZM312.204 92.0465C314.5 94.3437 315.79 97.459 315.79 100.707C315.79 103.956 314.5 107.071 312.204 109.368L294.882 126.714C292.582 129.014 289.462 130.306 286.209 130.306C282.956 130.306 279.836 129.014 277.536 126.714C275.236 124.414 273.944 121.294 273.944 118.041C273.944 114.788 275.236 111.668 277.536 109.368L294.882 92.0465C297.179 89.75 300.295 88.4599 303.543 88.4599C306.791 88.4599 309.906 89.75 312.204 92.0465ZM196 134.75C196 131.501 197.291 128.385 199.588 126.088C201.885 123.791 205.001 122.5 208.25 122.5C227.743 122.5 246.439 130.244 260.222 144.028C274.006 157.812 281.75 176.507 281.75 196C281.75 215.493 274.006 234.188 260.222 247.972C246.439 261.756 227.743 269.5 208.25 269.5C205.001 269.5 201.885 268.209 199.588 265.912C197.291 263.615 196 260.499 196 257.25C196 254.001 197.291 250.885 199.588 248.588C201.885 246.291 205.001 245 208.25 245C221.246 245 233.709 239.838 242.898 230.648C252.088 221.459 257.25 208.996 257.25 196C257.25 183.004 252.088 170.541 242.898 161.352C233.709 152.162 221.246 147 208.25 147C205.001 147 201.885 145.709 199.588 143.412C197.291 141.115 196 137.999 196 134.75ZM306.25 196C306.25 192.751 307.541 189.635 309.838 187.338C312.135 185.041 315.251 183.75 318.5 183.75H343C346.249 183.75 349.365 185.041 351.662 187.338C353.959 189.635 355.25 192.751 355.25 196C355.25 199.249 353.959 202.365 351.662 204.662C349.365 206.959 346.249 208.25 343 208.25H318.5C315.251 208.25 312.135 206.959 309.838 204.662C307.541 202.365 306.25 199.249 306.25 196ZM277.536 265.286C278.674 264.145 280.026 263.24 281.514 262.623C283.002 262.005 284.598 261.687 286.209 261.687C287.82 261.687 289.416 262.005 290.904 262.623C292.392 263.24 293.744 264.145 294.882 265.286L312.204 282.632C314.435 284.942 315.67 288.037 315.642 291.249C315.614 294.461 314.326 297.533 312.054 299.804C309.783 302.076 306.711 303.364 303.499 303.392C300.287 303.42 297.192 302.185 294.882 299.954L277.536 282.632C276.395 281.494 275.49 280.142 274.873 278.654C274.255 277.166 273.937 275.57 273.937 273.959C273.937 272.348 274.255 270.752 274.873 269.264C275.49 267.776 276.395 266.424 277.536 265.286ZM208.25 294C211.499 294 214.615 295.291 216.912 297.588C219.209 299.885 220.5 303.001 220.5 306.25V330.75C220.5 333.999 219.209 337.115 216.912 339.412C214.615 341.709 211.499 343 208.25 343C205.001 343 201.885 341.709 199.588 339.412C197.291 337.115 196 333.999 196 330.75V306.25C196 303.001 197.291 299.885 199.588 297.588C201.885 295.291 205.001 294 208.25 294Z" fill="#FFA012"/>
</g>
<defs>
<clipPath id="clip0_12_25">
<rect width="392" height="392" fill="white"/>
</clipPath>
</defs>
</svg>
