<svg width="237" height="236" viewBox="0 0 237 236" fill="none" xmlns="http://www.w3.org/2000/svg">
<g clip-path="url(#clip0_12_22)">
<path d="M74.0625 184.375C74.0604 188.431 72.9388 192.408 70.8202 195.872C68.7017 199.336 65.6678 202.153 62.05 204.016C58.4322 205.879 54.3698 206.716 50.3066 206.435C46.2434 206.155 42.3359 204.767 39.011 202.425C35.6861 200.083 33.0718 196.875 31.4537 193.153C29.8356 189.431 29.276 185.338 29.8361 181.321C30.3962 177.304 32.0544 173.517 34.6295 170.375C37.2046 167.233 40.5975 164.856 44.4375 163.504V140.125C44.4375 138.169 45.2178 136.293 46.6067 134.91C47.9957 133.527 49.8795 132.75 51.8438 132.75C53.808 132.75 55.6918 133.527 57.0808 134.91C58.4697 136.293 59.25 138.169 59.25 140.125V163.504C63.5838 165.03 67.3357 167.856 69.9886 171.594C72.6416 175.332 74.0649 179.798 74.0625 184.375Z" fill="#0383AE"/>
<path d="M14.8125 36.875C14.8125 27.0951 18.714 17.7158 25.6587 10.8004C32.6034 3.88503 42.0225 0 51.8438 0C61.6651 0 71.0841 3.88503 78.0288 10.8004C84.9735 17.7158 88.875 27.0951 88.875 36.875V148.238C96.0196 155.499 100.852 164.699 102.767 174.684C104.682 184.669 103.594 194.995 99.6393 204.367C95.6845 213.738 89.0392 221.739 80.5366 227.365C72.0339 232.991 62.0524 235.992 51.8438 235.992C41.6351 235.992 31.6536 232.991 23.151 227.365C14.6484 221.739 8.00301 213.738 4.04825 204.367C0.0934867 194.995 -0.994656 184.669 0.920268 174.684C2.83519 164.699 7.66794 155.499 14.8125 148.238V36.875ZM51.8438 14.75C45.951 14.75 40.2996 17.081 36.1327 21.2303C31.9659 25.3795 29.625 31.0071 29.625 36.875V154.683L27.1513 156.896C21.5607 161.874 17.6199 168.426 15.8505 175.683C14.081 182.941 14.5663 190.562 17.2422 197.539C19.9181 204.516 24.6583 210.519 30.8357 214.755C37.0131 218.99 44.3363 221.258 51.8364 221.258C59.3364 221.258 66.6597 218.99 72.837 214.755C79.0144 210.519 83.7547 204.516 86.4305 197.539C89.1064 190.562 89.5917 182.941 87.8223 175.683C86.0528 168.426 82.112 161.874 76.5214 156.896L74.0625 154.669V36.875C74.0625 31.0071 71.7216 25.3795 67.5548 21.2303C63.388 17.081 57.7365 14.75 51.8438 14.75ZM125.906 29.5C127.871 29.5 129.754 30.277 131.143 31.6601C132.532 33.0432 133.313 34.919 133.313 36.875V55.9468L142.881 46.4035C144.272 45.0187 146.158 44.2407 148.125 44.2407C150.092 44.2407 151.978 45.0187 153.369 46.4035C154.759 47.7883 155.541 49.6666 155.541 51.625C155.541 53.5834 154.759 55.4617 153.369 56.8465L133.313 76.8032V105.227L158.035 91.0223L165.367 63.7348C165.62 62.7992 166.055 61.9224 166.648 61.1544C167.241 60.3864 167.981 59.7423 168.824 59.2588C169.667 58.7753 170.598 58.4619 171.562 58.3365C172.527 58.2111 173.507 58.2762 174.447 58.528C175.386 58.7798 176.267 59.2134 177.038 59.8041C177.809 60.3948 178.456 61.1309 178.942 61.9705C179.427 62.8101 179.742 63.7367 179.868 64.6975C179.994 65.6582 179.929 66.6342 179.676 67.5698L176.165 80.5793L192.755 71.0508C194.455 70.0882 196.469 69.8343 198.356 70.3446C200.244 70.8549 201.852 72.0878 202.83 73.7744C203.808 75.461 204.076 77.4642 203.576 79.347C203.076 81.2298 201.849 82.8393 200.161 83.8243L183.571 93.3528L196.666 96.8485C197.605 97.1003 198.486 97.5339 199.257 98.1246C200.028 98.7153 200.675 99.4514 201.161 100.291C201.646 101.131 201.961 102.057 202.087 103.018C202.213 103.979 202.147 104.955 201.894 105.89C201.642 106.826 201.206 107.703 200.613 108.471C200.02 109.239 199.28 109.883 198.437 110.366C197.594 110.85 196.664 111.163 195.699 111.288C194.734 111.414 193.754 111.349 192.814 111.097L165.441 103.796L140.719 118L165.441 132.204L192.829 124.903C193.775 124.635 194.764 124.556 195.74 124.673C196.716 124.789 197.659 125.098 198.514 125.581C199.369 126.064 200.119 126.712 200.72 127.486C201.321 128.261 201.761 129.147 202.015 130.092C202.269 131.038 202.331 132.025 202.198 132.995C202.064 133.964 201.739 134.898 201.239 135.741C200.74 136.585 200.077 137.32 199.289 137.906C198.502 138.491 197.605 138.915 196.651 139.152L183.571 142.647L200.161 152.176C201.849 153.161 203.076 154.77 203.576 156.653C204.076 158.536 203.808 160.539 202.83 162.226C201.852 163.912 200.244 165.145 198.356 165.655C196.469 166.166 194.455 165.912 192.755 164.949L176.165 155.421L179.676 168.445C179.945 169.386 180.024 170.372 179.907 171.344C179.79 172.316 179.48 173.255 178.995 174.106C178.51 174.958 177.859 175.704 177.082 176.303C176.304 176.901 175.414 177.34 174.464 177.592C173.515 177.845 172.524 177.907 171.55 177.774C170.576 177.641 169.638 177.317 168.791 176.82C167.945 176.323 167.206 175.663 166.618 174.878C166.03 174.094 165.604 173.2 165.367 172.251L158.049 144.993L133.313 130.774V159.197L153.369 179.154C154.057 179.839 154.603 180.653 154.976 181.549C155.349 182.445 155.541 183.405 155.541 184.375C155.541 185.345 155.349 186.305 154.976 187.201C154.603 188.097 154.057 188.911 153.369 189.597C152.68 190.282 151.863 190.826 150.963 191.197C150.063 191.568 149.099 191.759 148.125 191.759C147.151 191.759 146.187 191.568 145.287 191.197C144.387 190.826 143.57 190.282 142.881 189.597L133.313 180.053V199.125C133.313 201.081 132.532 202.957 131.143 204.34C129.754 205.723 127.871 206.5 125.906 206.5C123.942 206.5 122.058 205.723 120.669 204.34C119.28 202.957 118.5 201.081 118.5 199.125V36.875C118.5 34.919 119.28 33.0432 120.669 31.6601C122.058 30.277 123.942 29.5 125.906 29.5Z" fill="#70DCFF"/>
</g>
<defs>
<clipPath id="clip0_12_22">
<rect width="237" height="236" fill="white"/>
</clipPath>
</defs>
</svg>
